#!OML:ASF F:\VICON\USERDATA\INSTALL\rory3\rory3.ASF
:FULLY-SPECIFIED
:DEGREES
801
root -9.39733 15.9388 -12.7937 -144.969 -50.3028 -188.216
lowerback -10.3542 -2.28052 -0.12262
upperback -14.0392 -5.53932 -6.25214
thorax -10.0715 -4.0799 -6.65276
lowerneck -3.65847 17.2575 3.51379
upperneck -3.83733 22.6358 -11.6488
head 1.25044 11.173 -3.48148
rclavicle 2.78299e-014 -1.28812e-013
rhumerus -68.5199 -48.083 21.5238
rradius 12.3449
rwrist 38.9242
rhand -0.916863 10.9638
rfingers 7.12502
rthumb 24.7119 -17.4602
lclavicle 2.78299e-014 -1.28812e-013
lhumerus 24.5964 13.828 71.6282
lradius 15.6694
lwrist -47.0579
lhand 4.77687 23.7175
lfingers 7.12502
lthumb 30.1571 51.2763
rfemur 289.953 -15.125 -325.396
rtibia 44.2979
rfoot 146.174 -229.72
rtoes 32.7496
lfemur -21.6823 15.378 -26.8079
ltibia 44.3729
lfoot 145.038 -142.321
ltoes 30.1034
802
root -9.37734 15.9399 -12.7286 -145.949 -51.1382 -187.299
lowerback -9.87593 -2.08398 1.24882
upperback -14.1828 -5.35752 -6.3752
thorax -10.65 -4.15616 -7.53698
lowerneck -3.24951 17.089 4.94458
upperneck -3.0931 22.478 -12.1793
head 1.67009 11.0753 -3.84887
rclavicle 2.5842e-015 -2.70347e-014
rhumerus -72.1699 -47.878 24.0396
rradius 12.2124
rwrist 41.253
rhand 0.238812 11.5101
rfingers 7.12502
rthumb 25.8191 -16.7576
lclavicle 2.5842e-015 -2.70347e-014
lhumerus 21.696 12.8082 71.2235
lradius 15.8932
lwrist -46.6236
lhand 5.16467 23.5025
lfingers 7.12502
lthumb 30.527 50.9931
rfemur 289.867 -16.2707 -323.845
rtibia 44.2841
rfoot 147.131 -228.987
rtoes 32.568
lfemur -22.1372 16.5028 -26.3215
ltibia 44.7635
lfoot 143.546 -142.231
ltoes 28.0064
803
root -9.3365 15.9164 -12.717 -145.615 -51.3021 -187.808
lowerback -10.2924 -2.17879 0.505116
upperback -13.9684 -5.39913 -6.37204
thorax -10.0821 -4.06848 -7.14292
lowerneck -3.34599 17.1156 5.1625
upperneck -2.92551 22.5246 -12.6083
head 1.8365 11.0808 -3.99052
rclavicle 3.08116e-014 5.08889e-014
rhumerus -75.442 -48.275 26.2554
rradius 12.0634
rwrist 43.2329
rhand 0.915811 11.7745
rfingers 7.12502
rthumb 26.4673 -16.3972
lclavicle 3.08116e-014 5.08889e-014
lhumerus 19.3135 11.4765 70.841
lradius 16.0998
lwrist -45.0132
lhand 5.11355 23.0959
lfingers 7.12502
lthumb 30.4783 50.5955
rfemur 289.753 -15.827 -324.754
rtibia 44.4484
rfoot 146.417 -229.681
rtoes 32.9784
lfemur -22.6979 17.817 -26.8981
ltibia 44.9807
lfoot 140.788 -143.259
ltoes 27.1559
804
root -9.31856 15.9188 -12.63 -147.241 -52.4515 -186.612
lowerback -9.46225 -2.18846 2.35859
upperback -13.865 -5.41799 -6.36073
thorax -10.6366 -4.24738 -8.14066
lowerneck -3.09224 17.1396 5.62656
upperneck -2.67365 22.588 -12.6242
head 1.94543 11.1155 -4.0663
rclavicle 2.94201e-014 -5.40694e-014
rhumerus -72.1329 -46.0864 19.2057
rradius 12.1052
rwrist 38.777
rhand 0.943998 11.1105
rfingers 7.12502
rthumb 26.4942 -17.0572
lclavicle 2.94201e-014 -5.40694e-014
lhumerus 16.0531 7.3656 69.0846
lradius 16.9657
lwrist -40.1634
lhand 4.80091 23.884
lfingers 7.12502
lthumb 30.1801 51.4385
rfemur 289.897 -17.9313 -322.421
rtibia 44.4676
rfoot 147.184 -227.822
rtoes 33.1952
lfemur -22.5836 18.578 -26.0358
ltibia 45.2998
lfoot 136.687 -145.559
ltoes 28.9914
805
root -9.27602 15.8888 -12.5804 -146.304 -52.32 -187.807
lowerback -9.78475 -2.50133 1.19497
upperback -13.6535 -5.75062 -6.24506
thorax -10.1072 -4.25262 -7.36782
lowerneck -3.34147 17.4178 5.71234
upperneck -2.74093 22.9412 -13.4515
head 1.92921 11.257 -3.83172
rclavicle 3.02153e-014 3.33958e-014
rhumerus -70.8286 -45.9364 15.5507
rradius 12.0604
rwrist 36.791
rhand 0.95905 10.5165
rfingers 7.12502
rthumb 26.5087 -17.649
lclavicle 3.02153e-014 3.33958e-014
lhumerus 15.2695 15.4358 72.494
lradius 15.5505
lwrist -47.6663
lhand 4.33298 22.1785
lfingers 7.12502
lthumb 29.7336 49.8137
rfemur 289.395 -17.9789 -323.391
rtibia 44.6005
rfoot 147.26 -227.985
rtoes 33.4011
lfemur -23.1601 18.9703 -27.3956
ltibia 45.5065
lfoot 132.037 -148.997
ltoes 32.7679
806
root -9.2249 15.8553 -12.5551 -146.558 -52.6794 -187.353
lowerback -9.82146 -2.20821 1.42274
upperback -13.817 -5.41307 -6.43531
thorax -10.2786 -4.14407 -7.7128
lowerneck -2.90914 17.2373 5.04321
upperneck -2.83163 22.7117 -12.3077
head 1.75118 11.1958 -3.90242
rclavicle 2.18663e-014 7.31528e-014
rhumerus -72.2926 -44.8172 14.6143
rradius 12.0819
rwrist 36.0499
rhand 1.10389 10.1707
rfingers 7.12502
rthumb 26.6473 -17.9738
lclavicle 2.18663e-014 7.31528e-014
lhumerus 12.3613 11.5486 71.5846
lradius 16.0162
lwrist -44.1857
lhand 4.45877 22.9026
lfingers 7.12502
lthumb 29.8536 50.5163
rfemur 289.219 -17.1317 -323.672
rtibia 44.6423
rfoot 146.384 -228.654
rtoes 34.1225
lfemur -23.9784 19.5797 -27.347
ltibia 45.7526
lfoot 128.866 -152.328
ltoes 36.0049
807
root -9.197 15.8462 -12.4826 -148.03 -53.7803 -185.868
lowerback -9.78269 -2.26827 2.74411
upperback -13.5318 -5.37673 -6.02358
thorax -10.036 -4.16457 -8.01756
lowerneck -3.30329 17.2479 5.36048
upperneck -2.34766 22.763 -12.7722
head 2.09563 11.1805 -4.02422
rclavicle 1.76918e-014 0
rhumerus -73.6624 -45.3091 14.6322
rradius 11.935
rwrist 36.8791
rhand 1.28473 9.50063
rfingers 7.12502
rthumb 26.8203 -18.6175
lclavicle 1.76918e-014 0
lhumerus 11.1694 16.7232 73.3061
lradius 15.0883
lwrist -49.4188
lhand 5.13344 19.1674
lfingers 7.12502
lthumb 30.4972 46.6635
rfemur 289.106 -18.2983 -321.74
rtibia 44.6745
rfoot 146.134 -226.984
rtoes 35.0775
lfemur -24.3288 20.142 -26.3254
ltibia 45.9398
lfoot 127.258 -153.228
ltoes 36.0126
